<?xml version="1.0" encoding="UTF-8" standalone="no"?>
<!-- Created with Inkscape (http://www.inkscape.org/) -->

<svg
   width="512"
   height="512"
   viewBox="0 0 135.46666 135.46667"
   version="1.1"
   id="svg1"
   xmlns:inkscape="http://www.inkscape.org/namespaces/inkscape"
   xmlns:sodipodi="http://sodipodi.sourceforge.net/DTD/sodipodi-0.dtd"
   xmlns="http://www.w3.org/2000/svg"
   xmlns:svg="http://www.w3.org/2000/svg">
  <sodipodi:namedview
     id="namedview1"
     pagecolor="#505050"
     bordercolor="#ffffff"
     borderopacity="1"
     inkscape:showpageshadow="0"
     inkscape:pageopacity="0"
     inkscape:pagecheckerboard="1"
     inkscape:deskcolor="#505050"
     inkscape:document-units="px" />
  <defs
     id="defs1" />
  <g
     inkscape:label="Layer 1"
     inkscape:groupmode="layer"
     id="layer1">
    <circle
       style="fill:#151515;fill-opacity:1;stroke-width:0.264583"
       id="path32"
       cx="67.73333"
       cy="67.73333"
       r="67.73333" />
    <g
       id="g41"
       transform="translate(4.2173599)">
      <path
         id="path21"
         style="fill:#f67c5a;fill-opacity:1;stroke-width:0.300679"
         d="m 67.725784,29.847878 c -2.32484,-2.32484 -6.09415,-2.32484 -8.41899,-1e-6 -2.32364,2.324043 -2.324458,6.091381 -0.0018,8.416432 L 88.773286,67.733332 59.304994,97.202356 c -2.322638,2.325042 -2.321812,6.092384 0.0018,8.416434 2.32484,2.32484 6.094151,2.32484 8.418991,0 L 101.40174,71.942827 c 2.32484,-2.32484 2.32484,-6.09415 0,-8.41899 z"
         sodipodi:nodetypes="scscscssss" />
      <path
         id="path38"
         style="fill:#f67c5a;stroke-width:0.221605"
         d="m 40.952261,38.629168 c -3.28782,0 -5.953125,2.665305 -5.953125,5.953125 v 46.302082 c 0,3.28782 2.665305,5.953125 5.953125,5.953125 3.28782,0 5.953125,-2.665305 5.953125,-5.953125 V 44.582293 c 0,-3.28782 -2.665305,-5.953125 -5.953125,-5.953125 z"
         sodipodi:nodetypes="sssssss" />
    </g>
  </g>
</svg>
