<?xml version="1.0" encoding="UTF-8" standalone="no"?>
<svg
   viewBox="0 0 256 200"
   width="256"
   height="200"
   preserveAspectRatio="xMidYMid"
   version="1.1"
   id="svg3"
   sodipodi:docname="cloudflare.svg"
   inkscape:version="1.4 (e7c3feb1, 2024-10-09)"
   xmlns:inkscape="http://www.inkscape.org/namespaces/inkscape"
   xmlns:sodipodi="http://sodipodi.sourceforge.net/DTD/sodipodi-0.dtd"
   xmlns="http://www.w3.org/2000/svg"
   xmlns:svg="http://www.w3.org/2000/svg">
  <defs
     id="defs3" />
  <sodipodi:namedview
     id="namedview3"
     pagecolor="#505050"
     bordercolor="#ffffff"
     borderopacity="1"
     inkscape:showpageshadow="0"
     inkscape:pageopacity="0"
     inkscape:pagecheckerboard="1"
     inkscape:deskcolor="#505050"
     inkscape:zoom="0.84469463"
     inkscape:cx="44.986672"
     inkscape:cy="-10.062808"
     inkscape:window-width="1472"
     inkscape:window-height="844"
     inkscape:window-x="0"
     inkscape:window-y="38"
     inkscape:window-maximized="0"
     inkscape:current-layer="svg3" />
  <g
     id="g1"
     transform="translate(0,-28)">
    <path
       fill="#ffffff"
       d="m 202.357,119.502 -5.311,-2.124 c -24.961,56.164 -124.26,22.019 -130.236,38.727 -0.996,11.286 54.227,2.146 93.706,4.059 12.039,0.583 18.076,9.671 12.964,24.484 l 10.069,0.031 c 11.615,-36.209 48.683,-17.73 50.232,-29.68 -2.545,-7.857 -42.601,0 -31.425,-35.497 z"
       id="path1" />
    <path
       fill="#f4811f"
       d="m 176.332,178.456 c 1.593,-5.31 1.062,-10.622 -1.593,-13.809 -2.656,-3.187 -6.374,-5.31 -11.154,-5.842 L 71.17,157.742 c -0.531,0 -1.062,-0.53 -1.593,-0.53 -0.531,-0.532 -0.531,-1.063 0,-1.594 0.531,-1.062 1.062,-1.594 2.124,-1.594 l 92.946,-1.062 c 11.154,-0.53 22.839,-9.56 27.087,-20.182 l 5.312,-13.809 c 0,-0.532 0.531,-1.063 0,-1.594 -5.843,-27.087 -30.274,-47.269 -58.955,-47.269 -26.556,0 -49.394,16.995 -57.361,40.896 -5.311,-3.718 -11.684,-5.843 -19.12,-5.31 -12.747,1.061 -22.838,11.683 -24.432,24.43 -0.531,3.187 0,6.374 0.532,9.56 C 16.996,140.215 0,157.211 0,178.456 c 0,2.124 0,3.718 0.531,5.842 0,1.063 1.062,1.594 1.594,1.594 h 170.489 c 1.062,0 2.125,-0.53 2.125,-1.594 z"
       id="path2" />
    <path
       fill="#faad3f"
       d="m 205.544,118.971 h -2.656 c -0.531,0 -1.062,0.53 -1.593,1.062 l -3.718,12.747 c -1.593,5.31 -1.062,10.623 1.594,13.809 2.655,3.187 6.373,5.31 11.153,5.843 l 19.652,1.062 c 0.53,0 1.062,0.53 1.593,0.53 0.53,0.532 0.53,1.063 0,1.594 -0.531,1.063 -1.062,1.594 -2.125,1.594 l -20.182,1.062 c -11.154,0.53 -22.838,9.56 -27.087,20.182 l -1.063,4.78 c -0.531,0.532 0,1.594 1.063,1.594 h 70.108 c 1.062,0 1.593,-0.531 1.593,-1.593 1.062,-4.25 2.124,-9.03 2.124,-13.81 0,-27.618 -22.838,-50.456 -50.456,-50.456"
       id="path3" />
  </g>
</svg>
