<?xml version="1.0" encoding="UTF-8" standalone="no"?>
<svg
   fill="none"
   viewBox="0 0 112.39056 96.942719"
   class="h-6"
   version="1.1"
   id="svg4"
   sodipodi:docname="tailwindcss.svg"
   width="112.39056"
   height="96.942719"
   inkscape:version="1.4 (e7c3feb1, 2024-10-09)"
   xmlns:inkscape="http://www.inkscape.org/namespaces/inkscape"
   xmlns:sodipodi="http://sodipodi.sourceforge.net/DTD/sodipodi-0.dtd"
   xmlns="http://www.w3.org/2000/svg"
   xmlns:svg="http://www.w3.org/2000/svg">
  <defs
     id="defs4" />
  <sodipodi:namedview
     id="namedview4"
     pagecolor="#505050"
     bordercolor="#ffffff"
     borderopacity="1"
     inkscape:showpageshadow="0"
     inkscape:pageopacity="0"
     inkscape:pagecheckerboard="1"
     inkscape:deskcolor="#505050"
     inkscape:zoom="0.23636364"
     inkscape:cx="287.69231"
     inkscape:cy="46.538462"
     inkscape:window-width="1472"
     inkscape:window-height="919"
     inkscape:window-x="0"
     inkscape:window-y="37"
     inkscape:window-maximized="0"
     inkscape:current-layer="svg4" />
  <path
     fill="currentColor"
     d="m 30.360424,61.280958 c 10.696,-0.694 21.994,0.63 29.687,4.68 7.96,4.19 11.353,10.849 10.802,17.258 -0.52,6.042 -4.607,11.513 -10.6,13.181 l -0.285,0.077 c -9.075,2.319 -18.584,-4.306 -19.643,-13.558 l -0.044,-0.442 -0.012,-0.189 a 3.68,3.68 0 0 1 7.323,-0.619 l 0.021,0.189 0.023,0.23 c 0.56,4.834 5.773,8.469 10.51,7.259 l 0.262,-0.073 c 2.698,-0.817 4.835,-3.454 5.113,-6.686 0.264,-3.067 -1.188,-7.11 -6.898,-10.116 -5.978,-3.147 -15.71,-4.501 -25.782,-3.847 -10.072,0.653 -19.546,3.254 -25.0670004,7.147 l -0.158,0.105 a 3.68,3.68 0 0 1 -4.083,-6.118 l 0.678,-0.464 c 7.116,-4.718 17.7930004,-7.341 28.1540004,-8.014 m 63.739,-42.502 c 9.810996,0.34 18.445996,8.182 18.287996,18.438 l -0.014,0.498 c -0.238,5.563 -2.353,10.429 -6.203,14.005 -3.814,3.544 -9.058996,5.573 -15.171996,6.054 -3.35,0.263 -7.81,-0.581 -12.554,-1.485 -4.967,-0.947 -10.816,-2.096 -17.598,-2.811 -13.29,-1.403 -30.147,-1.134 -49.963,5.86 l -0.9470004,0.338 a 3.68,3.68 0 0 1 -2.504,-6.919 l 1.005,-0.36 c 21.0730004,-7.436 39.0700004,-7.727 53.1820004,-6.237 7.135,0.753 13.283,1.963 18.203,2.9 5.143,0.98 8.464,1.545 10.598,1.378 4.857,-0.382 8.406,-1.939 10.741996,-4.108 2.3,-2.137 3.696,-5.115 3.859,-8.93 l 0.008,-0.282 c 0.085,-5.796 -4.893,-10.768 -11.172996,-10.985 l -0.306,-0.007 c -5.826,-0.057 -10.31,3.572 -11.466,9.283 a 3.68,3.68 0 0 1 -7.213,-1.46 c 1.857,-9.17 9.398,-15.274 18.753,-15.181 z"
     id="path1" />
  <path
     fill="currentColor"
     d="m 45.754424,14.903958 c 0.5,-8.8770002 8.697,-16.0480002 17.73,-14.75200019 l 0.331,0.052 c 6.939,1.15599999 11.565,7.01499999 12.222,13.38500019 0.698,6.76 -2.975,13.804 -11.616,17.543 -14.547,6.294 -18.427,5.793 -45.693,12.193 l -2.713,0.641 -0.186,0.04 a 3.68,3.68 0 0 1 -1.701,-7.15 l 0.182,-0.049 2.797,-0.66 c 28.056,-6.59 30.607,-5.804 44.393,-11.769 5.983,-2.588 7.554,-6.772 7.218,-10.034 -0.356,-3.44 -2.758,-6.2450002 -5.967,-6.8560002 l -0.313,-0.052 c -4.56,-0.655 -9.066,3.1080002 -9.337,7.8730002 l -0.01,0.227 -0.01,0.19 a 3.68,3.68 0 0 1 -7.346,-0.21 v -0.188 z"
     id="path2" />
</svg>
