<?xml version="1.0" encoding="UTF-8" standalone="no"?>
<svg
   class="u30-oicn"
   width="231"
   height="30"
   viewBox="0 0 231 30"
   preserveAspectRatio="xMinYMid"
   version="1.1"
   id="svg1"
   sodipodi:docname="oracle.svg"
   inkscape:version="1.3.2 (091e20e, 2023-11-25, custom)"
   xmlns:inkscape="http://www.inkscape.org/namespaces/inkscape"
   xmlns:sodipodi="http://sodipodi.sourceforge.net/DTD/sodipodi-0.dtd"
   xmlns="http://www.w3.org/2000/svg"
   xmlns:svg="http://www.w3.org/2000/svg">
  <defs
     id="defs1" />
  <sodipodi:namedview
     id="namedview1"
     pagecolor="#ffffff"
     bordercolor="#000000"
     borderopacity="0.25"
     inkscape:showpageshadow="2"
     inkscape:pageopacity="0.0"
     inkscape:pagecheckerboard="0"
     inkscape:deskcolor="#d1d1d1"
     inkscape:zoom="5.3722944"
     inkscape:cx="115.5"
     inkscape:cy="14.984287"
     inkscape:window-width="1920"
     inkscape:window-height="991"
     inkscape:window-x="-9"
     inkscape:window-y="-9"
     inkscape:window-maximized="1"
     inkscape:current-layer="svg1" />
  <path
     d="m 99.937727,19.507207 h 15.240003 l -8.05,-13.0000003 -14.800003,23.4800003 h -6.73 L 103.59773,1.8172067 a 4.29,4.29 0 0 1 7,-0.05 l 18.05,28.2200003 h -6.73 l -3.17,-5.25 h -15.42 l -3.360003,-5.23 m 69.930003,5.23 V 0.26720671 h -5.72 V 27.147207 a 2.76,2.76 0 0 0 0.85,2 2.89,2.89 0 0 0 2.08,0.87 h 26 l 3.39,-5.25 h -26.63 m -94.540003,-4.4 a 10.05,10.05 0 0 0 0,-20.10000029 h -25 V 29.987207 h 5.71 V 5.5272067 h 18.94 a 4.81,4.81 0 0 1 0,9.6200003 h -16.11 l 17.06,14.84 h 8.29 l -11.46,-9.62 h 2.57 m -60.12,9.62 h 17.27 a 14.86,14.86 0 0 0 0,-29.71000029 h -17.27 a 14.86,14.86 0 1 0 0,29.71000029 m 16.88,-5.23 h -16.5 a 9.62,9.62 0 0 1 0,-19.2300003 h 16.5 a 9.62,9.62 0 1 1 0,19.2300003 m 108.490003,5.23 h 17.63 l 3.34,-5.23 h -20.58 a 9.62,9.62 0 1 1 0,-19.2300003 h 16.75 l 3.38,-5.24999999 h -20.52 a 14.86,14.86 0 1 0 0,29.71000029 m 69.87,-5.23 a 9.62,9.62 0 0 1 -9.26,-7 h 24.42 l 3.36,-5.24 h -27.78 a 9.61,9.61 0 0 1 9.26,-7.0000003 h 16.76 l 3.35,-5.24999999 h -20.5 a 14.86,14.86 0 0 0 0,29.71000029 h 17.63 l 3.35,-5.23 h -20.6"
     id="path1"
     style="fill:#c74634;fill-opacity:1" />
</svg>
