<?xml version="1.0" encoding="UTF-8"?>
<svg xmlns="http://www.w3.org/2000/svg" width="460" height="460" viewBox="0 0 460 460" fill="none">
  <g clip-path="url(#clip0_105_12)">
    <path d="M430.431 29.8077C417.455 16.8405 402.038 8.63079 384.178 5.17847C366.316 1.72616 346.602 0 325.034 0H134.209C112.978 0 93.4746 1.72616 75.6978 5.17847C57.9213 8.63079 42.5459 16.8405 29.5715 29.8077C16.7656 42.6066 8.63555 57.8473 5.18132 75.5299C1.72711 93.2125 0 112.663 0 133.882V324.855C0 346.411 1.68498 366.072 5.05494 383.839C8.42492 401.605 16.5971 416.887 29.5715 429.686C42.5459 442.654 57.9213 450.865 75.6978 454.317C93.4746 457.769 113.147 459.496 134.715 459.496H325.034C346.602 459.496 366.316 457.769 384.178 454.317C402.038 450.865 417.455 442.654 430.431 429.686C443.235 416.887 451.364 401.605 454.819 383.839C458.273 366.072 460 346.411 460 324.855V134.64C460 113.084 458.273 93.423 454.819 75.6561C451.364 57.8894 443.235 42.6066 430.431 29.8077Z" fill="#C74634"></path>
    <mask id="mask0_105_12" style="mask-type:alpha" maskUnits="userSpaceOnUse" x="0" y="0" width="460" height="460">
      <path d="M430.431 29.8077C417.455 16.8405 402.038 8.63079 384.178 5.17847C366.316 1.72616 346.602 0 325.034 0H134.209C112.978 0 93.4746 1.72616 75.6978 5.17847C57.9213 8.63079 42.5459 16.8405 29.5715 29.8077C16.7656 42.6066 8.63555 57.8473 5.18132 75.5299C1.72711 93.2125 0 112.663 0 133.882V324.855C0 346.411 1.68498 366.072 5.05494 383.839C8.42492 401.605 16.5971 416.887 29.5715 429.686C42.5459 442.654 57.9213 450.865 75.6978 454.317C93.4746 457.769 113.147 459.496 134.715 459.496H325.034C346.602 459.496 366.316 457.769 384.178 454.317C402.038 450.865 417.455 442.654 430.431 429.686C443.235 416.887 451.364 401.605 454.819 383.839C458.273 366.072 460 346.411 460 324.855V134.64C460 113.084 458.273 93.423 454.819 75.6561C451.364 57.8894 443.235 42.6066 430.431 29.8077Z" fill="black"></path>
    </mask>
    <g mask="url(#mask0_105_12)">
      <path d="M375.711 230.039C375.742 217.963 373.39 206 368.79 194.835C364.19 183.669 357.432 173.521 348.904 164.972C340.375 156.423 330.244 149.64 319.09 145.013C307.936 140.385 295.978 138.004 283.902 138.006H177.005C164.842 137.868 152.772 140.145 141.494 144.704C130.216 149.263 119.955 156.015 111.305 164.568C102.655 173.12 95.7875 183.304 91.1006 194.529C86.4136 205.754 84.0002 217.798 84.0002 229.962C84.0002 242.127 86.4136 254.17 91.1006 265.396C95.7875 276.621 102.655 286.804 111.305 295.357C119.955 303.91 130.216 310.661 141.494 315.22C152.772 319.78 164.842 322.057 177.005 321.919H283.902C295.969 321.931 307.92 319.562 319.07 314.948C330.22 310.333 340.349 303.564 348.878 295.027C357.407 286.491 364.167 276.355 368.772 265.201C373.376 254.047 375.734 242.094 375.711 230.027M281.455 289.554H179.358C163.718 289.333 148.793 282.966 137.81 271.827C126.828 260.689 120.671 245.675 120.671 230.033C120.671 214.391 126.828 199.378 137.81 188.239C148.793 177.101 163.718 170.733 179.358 170.513H281.467C289.354 170.401 297.184 171.859 304.503 174.8C311.822 177.741 318.483 182.108 324.099 187.646C329.716 193.184 334.176 199.783 337.22 207.06C340.264 214.336 341.832 222.146 341.832 230.033C341.832 237.921 340.264 245.73 337.22 253.007C334.176 260.283 329.716 266.883 324.099 272.421C318.483 277.959 311.822 282.325 304.503 285.266C297.184 288.208 289.342 289.665 281.455 289.554Z" fill="white"></path>
    </g>
  </g>
  <defs>
    <clipPath id="clip0_105_12">
      <rect width="460" height="460" fill="white"></rect>
    </clipPath>
  </defs>
</svg>
