<?xml version="1.0" encoding="UTF-8" standalone="no"?>
<svg
   width="800"
   height="693.31641"
   viewBox="0 0 211.66666 183.43996"
   version="1.1"
   id="svg924"
   sodipodi:docname="proxmox-light.svg"
   inkscape:version="1.4 (e7c3feb1, 2024-10-09)"
   xmlns:inkscape="http://www.inkscape.org/namespaces/inkscape"
   xmlns:sodipodi="http://sodipodi.sourceforge.net/DTD/sodipodi-0.dtd"
   xmlns="http://www.w3.org/2000/svg"
   xmlns:svg="http://www.w3.org/2000/svg"
   xmlns:rdf="http://www.w3.org/1999/02/22-rdf-syntax-ns#"
   xmlns:cc="http://creativecommons.org/ns#"
   xmlns:dc="http://purl.org/dc/elements/1.1/">
  <sodipodi:namedview
     id="namedview1"
     pagecolor="#505050"
     bordercolor="#ffffff"
     borderopacity="1"
     inkscape:showpageshadow="0"
     inkscape:pageopacity="0"
     inkscape:pagecheckerboard="1"
     inkscape:deskcolor="#505050"
     inkscape:zoom="0.34644689"
     inkscape:cx="871.70649"
     inkscape:cy="482.03637"
     inkscape:window-width="1472"
     inkscape:window-height="919"
     inkscape:window-x="0"
     inkscape:window-y="37"
     inkscape:window-maximized="0"
     inkscape:current-layer="svg924" />
  <defs
     id="defs918" />
  <metadata
     id="metadata921">
    <rdf:RDF>
      <cc:Work
         rdf:about="">
        <dc:format>image/svg+xml</dc:format>
        <dc:type
           rdf:resource="http://purl.org/dc/dcmitype/StillImage" />
      </cc:Work>
    </rdf:RDF>
  </metadata>
  <g
     id="g1"
     transform="matrix(1.5813629,0,0,1.5813629,-61.391924,-1.4029275e-6)">
    <path
       id="path1290"
       style="fill:#e57000;fill-opacity:1;fill-rule:nonzero;stroke:none;stroke-width:0.974521"
       d="m 138.78978,58.001753 33.88316,37.234652 c -3.7236,3.847293 -8.93632,6.206605 -14.64703,6.206605 -6.08101,0 -11.41753,-2.606858 -15.14123,-6.702765 l -18.741,-20.602293 -14.64613,-16.136199 14.64613,-16.011386 18.741,-20.603376 c 3.7237,-4.0949 9.06022,-6.702765 15.14123,-6.702765 5.71071,0 10.92343,2.358345 14.64703,6.082033 z" />
    <path
       id="path1292"
       style="fill:#e57000;fill-opacity:1;fill-rule:nonzero;stroke:none;stroke-width:0.974521"
       d="M 72.705333,58.001339 38.82216,95.236045 c 3.7236,3.847293 8.936316,6.206605 14.647049,6.206605 6.080992,0 11.417517,-2.606858 15.141206,-6.702765 L 87.351406,74.137539 101.99751,58.001339 87.351406,41.989953 68.610415,21.386578 c -3.723689,-4.094954 -9.060214,-6.702765 -15.141206,-6.702765 -5.710733,0 -10.923449,2.358345 -14.647049,6.082034 z" />
    <path
       id="path1294"
       style="fill:#ffffff;fill-opacity:1;fill-rule:nonzero;stroke:none;stroke-width:0.889493"
       d="M 119.09863,76.463726 105.73083,61.735899 92.362432,76.463726 61.435302,110.45015 c 3.398415,3.39869 8.157559,5.55103 13.366864,5.55103 5.551453,0 10.19704,-2.26634 13.708146,-6.11756 l 17.220518,-18.805401 17.10509,18.805401 c 3.39907,3.73724 8.26958,6.11756 13.82018,6.11756 5.21213,0 9.97024,-2.15234 13.36869,-5.55103 z" />
    <path
       id="path1296"
       style="fill:#ffffff;fill-opacity:1;fill-rule:nonzero;stroke:none;stroke-width:0.889493"
       d="M 119.0978,39.53738 105.73001,54.265206 92.361605,39.53738 61.434494,5.5509687 C 64.832945,2.1523928 69.592035,8.8716351e-7 74.801377,8.8716351e-7 80.352847,8.8716351e-7 84.998392,2.2663102 88.509486,6.1175247 L 105.73001,24.922983 122.8351,6.1175247 C 126.23422,2.3801928 131.10471,8.8716351e-7 136.65527,8.8716351e-7 c 5.21215,0 9.97029,2.15239191283649 13.36871,5.55096781283649 z" />
  </g>
</svg>
