<?xml version="1.0" encoding="UTF-8" standalone="no"?>
<svg
   width="335"
   height="431"
   viewBox="0 0 335 431"
   fill="none"
   version="1.1"
   id="svg16"
   sodipodi:docname="supermaven.svg"
   inkscape:version="1.4 (e7c3feb1, 2024-10-09)"
   xmlns:inkscape="http://www.inkscape.org/namespaces/inkscape"
   xmlns:sodipodi="http://sodipodi.sourceforge.net/DTD/sodipodi-0.dtd"
   xmlns="http://www.w3.org/2000/svg"
   xmlns:svg="http://www.w3.org/2000/svg">
  <defs
     id="defs16" />
  <sodipodi:namedview
     id="namedview16"
     pagecolor="#505050"
     bordercolor="#ffffff"
     borderopacity="1"
     inkscape:showpageshadow="0"
     inkscape:pageopacity="0"
     inkscape:pagecheckerboard="1"
     inkscape:deskcolor="#505050"
     inkscape:zoom="0.058426966"
     inkscape:cx="958.46154"
     inkscape:cy="222.5"
     inkscape:window-width="1472"
     inkscape:window-height="919"
     inkscape:window-x="0"
     inkscape:window-y="37"
     inkscape:window-maximized="0"
     inkscape:current-layer="svg16" />
  <path
     d="m 33,431 c 18.2254,0 33,-14.775 33,-33 0,-18.225 -14.7746,-33 -33,-33 -18.2254,0 -33,14.775 -33,33 0,18.225 14.7746,33 33,33 z"
     fill="#58c4ff"
     id="path11" />
  <path
     fill-rule="evenodd"
     clip-rule="evenodd"
     d="M 151,246.979 62.2355,414 4,383.021 92.765,216 Z"
     fill="#58c4ff"
     id="path12" />
  <path
     fill-rule="evenodd"
     clip-rule="evenodd"
     d="M 182,48.9791 92.632,216 34,185.021 123.368,18 Z"
     fill="#58c4ff"
     id="path13" />
  <path
     d="m 152,66 c 18.225,0 33,-14.7746 33,-33 0,-18.2254 -14.775,-33 -33,-33 -18.225,0 -33,14.7746 -33,33 0,18.2254 14.775,33 33,33 z"
     fill="#58c4ff"
     id="path14" />
  <path
     fill-rule="evenodd"
     clip-rule="evenodd"
     d="M 309.971,0.98315 C 324.679,4.6475 335,17.8484 335,32.9952 V 398 H 268.968 V 165.319 L 209.303,277.453 151,246.475 272.833,17.5064 C 279.949,4.1326 295.264,-2.68119 309.971,0.98315 Z"
     fill="#58c4ff"
     id="path15" />
  <path
     d="m 302,431 c 18.225,0 33,-14.775 33,-33 0,-18.225 -14.775,-33 -33,-33 -18.225,0 -33,14.775 -33,33 0,18.225 14.775,33 33,33 z"
     fill="#58c4ff"
     id="path16" />
</svg>
